<svg width="28" height="32" fill="none" xmlns="http://www.w3.org/2000/svg">
  <path d="M27.349 30.725h-2.733V9.395a1.94 1.94 0 0 0-.59-1.365 2.025 2.025 0 0 0-1.395-.572h-3.095V5.602c0-1.054-.898-1.905-1.976-1.905h-2.974V.637a.63.63 0 0 0-.19-.45.659.659 0 0 0-.922 0 .63.63 0 0 0-.19.45v3.06H10.44c-1.078 0-1.976.85-1.976 1.905v1.856H5.99c-1.077 0-1.953.882-1.953 1.937v21.33H.65a.659.659 0 0 0-.46.187.63.63 0 0 0 0 .901c.122.12.288.187.46.187H27.35a.658.658 0 0 0 .46-.187.63.63 0 0 0 0-.901.658.658 0 0 0-.46-.187ZM9.767 5.602c0-.351.314-.63.673-.63h7.12c.36 0 .673.279.673.63v1.856H9.767V5.602ZM5.338 9.395c0-.352.292-.662.651-.662h16.642a.707.707 0 0 1 .475.198c.127.123.201.289.207.464v21.33h-4.298v-3.864a1.93 1.93 0 0 0-.581-1.363 2.014 2.014 0 0 0-1.39-.574h-5.777c-1.077 0-1.956.882-1.956 1.937v3.864H5.338V9.395Zm12.374 21.33h-7.099v-3.864c0-.172.068-.337.19-.46a.682.682 0 0 1 .464-.202h5.777a.697.697 0 0 1 .47.2.667.667 0 0 1 .198.462v3.864Z" fill="#202020"/>
</svg>
