<svg width="32" height="33" fill="none" xmlns="http://www.w3.org/2000/svg">
  <g clip-path="url(#a)" fill="#202020">
    <path d="M10.39 9.338a1.883 1.883 0 0 0 0 .193v.772c0 .38.099.752.285 1.07.187.316.452.565.763.713a7.13 7.13 0 0 0 .747 2.656l.94 1.791c.181.346.44.633.75.832.31.199.66.303 1.018.303h2.536a1.883 1.883 0 0 0 1.01-.307c.307-.2.564-.484.745-.828l.953-1.79a7.12 7.12 0 0 0 .767-2.657c.31-.15.573-.4.758-.716.185-.317.284-.688.284-1.067V9.53c.002-.13-.01-.26-.034-.386.233-.184.423-.43.553-.715.13-.285.197-.602.194-.922 0-.456-.142-.897-.403-1.245a1.672 1.672 0 0 0-1.023-.655A6.369 6.369 0 0 0 19.81 3.15a5.427 5.427 0 0 0-2.264-1.455 1.842 1.842 0 0 0-.607-.867A1.526 1.526 0 0 0 16.003.5c-.334 0-.66.114-.936.327a1.843 1.843 0 0 0-.606.867 5.429 5.429 0 0 0-2.26 1.457 6.37 6.37 0 0 0-1.421 2.457 1.693 1.693 0 0 0-.962.586 2.076 2.076 0 0 0-.463 1.116 2.17 2.17 0 0 0 .22 1.206c.185.366.471.654.814.822Zm.685-2.216h9.864a.325.325 0 0 1 .14.038.364.364 0 0 1 .116.098.45.45 0 0 1 .087.304c0 .1-.036.196-.1.267a.318.318 0 0 1-.237.111h-9.884a.324.324 0 0 1-.14-.038.364.364 0 0 1-.116-.098.448.448 0 0 1 .023-.557.323.323 0 0 1 .233-.102l.014-.023Zm9.507 3.188a.423.423 0 0 1-.093.27.337.337 0 0 1-.108.085.304.304 0 0 1-.128.032.649.649 0 0 0-.485.226.824.824 0 0 0-.2.546 5.384 5.384 0 0 1-.624 2.501l-.94 1.791a.733.733 0 0 1-.244.274.628.628 0 0 1-.331.105h-2.536a.627.627 0 0 1-.335-.1.731.731 0 0 1-.248-.271l-.946-1.799a5.383 5.383 0 0 1-.603-2.494.825.825 0 0 0-.2-.546.649.649 0 0 0-.486-.226.326.326 0 0 1-.237-.116.413.413 0 0 1-.098-.27v-.811h8.822a.079.079 0 0 1 0 .04l.02.763Zm-6.224-6.948v.3c0 .206.072.402.2.547a.649.649 0 0 0 .486.226.649.649 0 0 0 .484-.226.825.825 0 0 0 .201-.546V2.389c0-.084.03-.165.082-.224a.266.266 0 0 1 .402-.003c.027.03.048.065.063.104.014.039.022.08.022.123V3.7c0 .205.072.402.2.546a.649.649 0 0 0 .485.227.649.649 0 0 0 .485-.227.825.825 0 0 0 .2-.546v-.308c.893.445 1.62 1.226 2.057 2.208h-7.458c.444-.986 1.178-1.767 2.077-2.208l.014-.031ZM3.685 32.5h24.63a.649.649 0 0 0 .484-.226.824.824 0 0 0 .201-.546v-4.756c0-.409 0-1.544-8.685-8.03a.627.627 0 0 0-.87.109l-1.05 1.22-.623-.695a.65.65 0 0 0-.48-.232h-2.269c-.09 0-.18.021-.264.06a.689.689 0 0 0-.223.172l-.685.772-1.179-1.297a.627.627 0 0 0-.857-.093C3 25.458 3 26.555 3 26.972v4.756c0 .205.072.401.2.546a.649.649 0 0 0 .485.226Zm10.968-1.544.932-5.598h1.124l.946 5.598h-3.002Zm.685-10.037h1.7l.44.494-.446.517h-1.694l-.452-.494.453-.517ZM4.371 27.096c.5-.842 4.277-3.93 7.76-6.524l2.412 2.663c.13.14.301.218.48.216h2.27a.62.62 0 0 0 .268-.062.694.694 0 0 0 .225-.177l1.014-1.181.11-.077a.675.675 0 0 0 .089-.155l1.035-1.204c3.427 2.586 7.108 5.667 7.595 6.508v3.86h-8.582l-1.083-6.508a.796.796 0 0 0-.24-.458.639.639 0 0 0-.446-.175h-2.255a.639.639 0 0 0-.446.175.796.796 0 0 0-.24.458l-1.055 6.501H4.371v-3.86Z"/>
  </g>
  <defs>
    <clipPath id="a">
      <path fill="#fff" transform="translate(0 .5)" d="M0 0h32v32H0z"/>
    </clipPath>
  </defs>
</svg>